<svg width="12" height="13" viewBox="0 0 12 13" fill="none" xmlns="http://www.w3.org/2000/svg">
<path d="M11.0176 12.3531V11.0176C11.0176 10.3092 10.7362 9.62985 10.2353 9.12896C9.7344 8.62806 9.05503 8.34666 8.34666 8.34666H7.67893C7.50183 8.34666 7.33199 8.27631 7.20677 8.15108C7.08154 8.02586 7.01119 7.85602 7.01119 7.67893V4.34026C7.01119 3.98607 6.87049 3.64639 6.62004 3.39594C6.3696 3.14549 6.02991 3.00479 5.67573 3.00479C5.32154 3.00479 4.98186 3.14549 4.73141 3.39594C4.48096 3.64639 4.34026 3.98607 4.34026 4.34026V10.3499L2.7377 8.21311C2.61331 8.04725 2.452 7.91263 2.26657 7.81991C2.08113 7.7272 1.87665 7.67893 1.66933 7.67893H1.37953C0.801943 7.67893 0.333862 8.14701 0.333862 8.7246C0.333862 8.91423 0.385278 9.10053 0.482767 9.26279L2.33706 12.3531M5.67573 1.0016V0.333862V1.0016ZM9.68213 5.00799H10.3499H9.68213ZM1.0016 5.00799H1.66933H1.0016ZM2.56609 1.89836L2.09401 1.42627L2.56609 1.89836ZM8.78536 1.89836L9.25745 1.42627L8.78536 1.89836Z" fill="#4CAF4F"/>
<path d="M11.0176 12.3531V11.0176C11.0176 10.3092 10.7362 9.62985 10.2353 9.12896C9.7344 8.62806 9.05503 8.34666 8.34666 8.34666H7.67893C7.50183 8.34666 7.33199 8.27631 7.20677 8.15108C7.08154 8.02586 7.01119 7.85602 7.01119 7.67893V4.34026C7.01119 3.98607 6.87049 3.64639 6.62004 3.39594C6.3696 3.1455 6.02991 3.00479 5.67573 3.00479V3.00479C5.32154 3.00479 4.98186 3.1455 4.73141 3.39594C4.48096 3.64639 4.34026 3.98607 4.34026 4.34026V10.3499L2.7377 8.21311C2.61331 8.04725 2.452 7.91263 2.26657 7.81991C2.08113 7.7272 1.87665 7.67893 1.66933 7.67893H1.37953C0.801943 7.67893 0.333862 8.14701 0.333862 8.7246C0.333862 8.91423 0.385278 9.10053 0.482767 9.26279L2.33706 12.3531M5.67573 1.0016V0.333862M9.68213 5.00799H10.3499M1.0016 5.00799H1.66933M2.56609 1.89836L2.09401 1.42627M8.78536 1.89836L9.25745 1.42627" stroke="#4CAF4F" stroke-width="0.667733" stroke-linecap="round" stroke-linejoin="round"/>
</svg>
