<svg width="37" height="14" viewBox="0 0 37 14" fill="none" xmlns="http://www.w3.org/2000/svg">
<g clip-path="url(#clip0_211_2077)">
<path d="M8.59168 0C7.17815 0 5.82253 0.561519 4.82302 1.56103L1.56103 4.82302C0.561519 5.82253 0 7.17815 0 8.59168C0 11.5352 2.38619 13.9214 5.32971 13.9214C6.74324 13.9214 8.09886 13.3598 9.09837 12.3603L11.3547 10.104C11.3547 10.104 11.3547 10.1041 11.3547 10.104L17.9289 3.52981C18.4063 3.05245 19.0537 2.78428 19.7288 2.78428C20.859 2.78428 21.8172 3.52091 22.1494 4.54026L24.2242 2.46546C23.2777 0.983008 21.6181 0 19.7288 0C18.3153 0 16.9596 0.561519 15.9601 1.56103L7.12961 10.3916C6.65224 10.8689 6.00481 11.1371 5.32971 11.1371C3.9239 11.1371 2.78428 9.99751 2.78428 8.59168C2.78428 7.91658 3.05245 7.26915 3.52981 6.79178L6.79178 3.52981C7.26915 3.05245 7.91658 2.78428 8.59168 2.78428C9.72196 2.78428 10.6801 3.52094 11.0123 4.54033L13.0872 2.46551C12.1407 0.983036 10.481 0 8.59168 0Z" fill="#394149"/>
<path d="M18.2667 10.3916C17.7894 10.8689 17.1419 11.1371 16.4668 11.1371C15.3367 11.1371 14.3786 10.4007 14.0463 9.38148L11.9716 11.4562C12.9181 12.9385 14.5777 13.9214 16.4668 13.9214C17.8804 13.9214 19.236 13.3598 20.2355 12.3603L29.066 3.52981C29.5434 3.05245 30.1908 2.78428 30.8659 2.78428C32.2717 2.78428 33.4113 3.9239 33.4113 5.32971C33.4113 6.00481 33.1432 6.65224 32.6658 7.12961L29.4038 10.3916C28.9265 10.8689 28.279 11.1371 27.6039 11.1371C26.4737 11.1371 25.5156 10.4005 25.1833 9.38125L23.1086 11.4561C24.0551 12.9384 25.7147 13.9214 27.6039 13.9214C29.0175 13.9214 30.3731 13.3598 31.3726 12.3603L34.6346 9.09837C35.6341 8.09886 36.1956 6.74324 36.1956 5.32971C36.1956 2.38619 33.8094 0 30.8659 0C29.4524 0 28.0967 0.561519 27.0972 1.56103L18.2667 10.3916Z" fill="#394149"/>
</g>
<defs>
<clipPath id="clip0_211_2077">
<rect width="36.1956" height="13.9214" fill="white"/>
</clipPath>
</defs>
</svg>
