<svg width="39" height="21" viewBox="0 0 39 21" fill="none" xmlns="http://www.w3.org/2000/svg">
<path d="M38.2808 7.42682C38.2848 7.39779 38.2848 7.36845 38.2808 7.33943C38.2846 7.31578 38.2846 7.29166 38.2808 7.26796L37.9972 5.22663C37.9563 4.98241 37.8469 4.75415 37.6813 4.56737L37.6326 4.51177L37.5436 4.42439L32.6338 0.278202L32.7715 0.413241C32.6588 0.281069 32.5174 0.175349 32.3575 0.103869C32.1977 0.0323883 32.0235 -0.00303662 31.8479 0.000207473H30.3571C30.1147 -0.0045012 29.8778 0.0710586 29.6846 0.214669C29.4818 0.0719236 29.2376 -0.00324966 28.9879 0.000207473H27.4971C27.3016 -0.00290242 27.1087 0.0446692 26.938 0.13812C26.7673 0.23157 26.6248 0.367582 26.5249 0.532378C26.3709 0.767756 26.3131 1.05135 26.3628 1.32667L26.5492 2.61341C26.4257 2.54481 26.286 2.50921 26.1441 2.51017H18.9252C18.6662 2.51176 18.4132 2.58618 18.196 2.72462C17.9861 2.85347 17.8175 3.03797 17.7099 3.25679L17.1509 2.78816C16.9309 2.58857 16.6404 2.48039 16.3407 2.48634H5.01416C4.75424 2.49098 4.50009 2.56216 4.2769 2.69285C3.97156 2.86806 3.74778 3.15295 3.65304 3.48714L0.0557668 15.2823C-0.011447 15.4767 -0.018059 15.6863 0.0367777 15.8844C0.0916142 16.0824 0.205416 16.26 0.363645 16.3944C0.404874 16.4286 0.448165 16.4605 0.493279 16.4896C0.493279 16.4896 0.42035 16.442 0.37984 16.4023L5.28965 20.5564C5.49734 20.7439 5.76889 20.8487 6.05118 20.8503H17.4669C17.7276 20.8437 17.9819 20.7697 18.2042 20.6358C18.3299 20.5685 18.4423 20.4797 18.5363 20.3737L18.5769 20.3181L18.6417 20.2387L18.6903 20.1513L19.225 20.6041C19.4297 20.7841 19.6954 20.8831 19.9704 20.8821H31.4103C31.6708 20.8736 31.9246 20.7998 32.1476 20.6676C32.2705 20.5962 32.3823 20.5079 32.4798 20.4055L32.5203 20.3499L32.5851 20.2705C32.6196 20.2202 32.6495 20.1671 32.6742 20.1116C32.7007 20.0635 32.7224 20.0129 32.739 19.9607L36.0203 9.19015V9.09483C36.0244 9.05787 36.0244 9.02059 36.0203 8.98363V8.91216C36.0243 8.88846 36.0243 8.86434 36.0203 8.84064C36.024 8.79042 36.024 8.73999 36.0203 8.68971H37.0736C37.1652 8.69796 37.2574 8.69796 37.3491 8.68971H37.422C37.4813 8.67238 37.5384 8.64837 37.5922 8.61825H37.6732L37.819 8.50705L37.8838 8.45938L37.9972 8.31639V8.26878L38.0783 8.13373C38.0737 8.10747 38.0737 8.08058 38.0783 8.05432C38.074 8.04143 38.074 8.02749 38.0783 8.0146C38.0955 7.96803 38.109 7.92021 38.1188 7.87161C38.115 7.85594 38.115 7.8396 38.1188 7.82394C38.1148 7.80029 38.1148 7.77612 38.1188 7.75247C38.1188 7.75247 38.2808 7.44269 38.2808 7.42682Z" fill="black"/>
</svg>
